<?xml version="1.0" encoding="utf-8"?>
<!-- Generator: Adobe Illustrator 18.1.1, SVG Export Plug-In . SVG Version: 6.00 Build 0)  -->
<svg version="1.1" id="Layer_1" xmlns="http://www.w3.org/2000/svg" xmlns:xlink="http://www.w3.org/1999/xlink" x="0px" y="0px"
	 width="273.6px" height="36.9px" viewBox="-342 262.1 273.6 36.9" enable-background="new -342 262.1 273.6 36.9"
	 xml:space="preserve">
<g>
	<path d="M-97.9,298.5h3.7v-10.2c0-1.1,0.1-2.1,0.4-2.9c0.3-0.8,0.6-1.5,1.1-2s1-0.9,1.6-1.2c0.6-0.3,1.3-0.4,1.9-0.4
		c0.9,0,1.6,0.2,2.2,0.5c0.5,0.3,0.9,0.8,1.2,1.3c0.3,0.6,0.5,1.2,0.6,2s0.1,1.6,0.1,2.6v10.2h3.7v-10.6c0-1.7,0.4-3.1,1.2-4.2
		c0.8-1.1,2-1.6,3.8-1.6c0.9,0,1.6,0.2,2.2,0.5c0.5,0.3,1,0.7,1.3,1.3c0.3,0.5,0.5,1.1,0.6,1.8s0.1,1.4,0.1,2.1v10.9h3.7v-11.5
		c0-1.1-0.1-2.2-0.3-3.2c-0.2-1-0.6-2-1.1-2.8c-0.6-0.8-1.3-1.5-2.3-2s-2.2-0.7-3.7-0.7c-1.2,0-2.3,0.3-3.5,0.9
		c-1.2,0.6-2,1.5-2.7,2.7c-0.6-1.2-1.4-2.1-2.4-2.7c-1-0.6-2.2-0.9-3.7-0.9c-0.9,0-1.7,0.1-2.4,0.4c-0.7,0.3-1.4,0.6-1.9,0.9
		c-0.5,0.4-1,0.8-1.3,1.2c-0.3,0.4-0.6,0.8-0.6,1h-0.1v-3H-98L-97.9,298.5L-97.9,298.5z M-110.1,289.1v1.2c0,0.7-0.1,1.3-0.3,2
		c-0.2,0.7-0.5,1.3-0.9,1.8s-1,1-1.7,1.3c-0.7,0.3-1.6,0.5-2.6,0.5c-1.3,0-2.3-0.2-3.1-0.7s-1.1-1.3-1.1-2.4c0-0.8,0.2-1.4,0.7-1.9
		s1.1-0.9,1.9-1.2c0.8-0.3,1.6-0.5,2.5-0.6s1.8-0.1,2.7-0.1h1.9V289.1z M-120.3,283.7c0.3-0.2,0.7-0.5,1-0.8
		c0.4-0.3,0.8-0.5,1.2-0.7c0.4-0.2,0.9-0.4,1.5-0.5c0.5-0.1,1.2-0.2,1.9-0.2c0.8,0,1.5,0.1,2.1,0.4c0.6,0.2,1.1,0.5,1.4,0.9
		c0.4,0.4,0.7,0.8,0.9,1.3s0.3,1,0.3,1.5v0.8h-2.7c-1.5,0-2.9,0.1-4.2,0.3c-1.3,0.2-2.4,0.6-3.4,1.2c-1,0.5-1.7,1.2-2.3,2.1
		s-0.8,1.9-0.8,3.2c0,1,0.2,1.8,0.5,2.5c0.4,0.7,0.8,1.3,1.5,1.8c0.6,0.5,1.3,0.9,2.2,1.1c0.8,0.2,1.7,0.4,2.6,0.4
		c1.5,0,2.8-0.3,3.9-0.8c1.1-0.5,2.1-1.4,2.9-2.7h0.1c0,1,0,2,0.1,3h3.3c-0.1-0.5-0.1-1.1-0.1-1.6c0-0.6,0-1.2,0-1.9v-10
		c0-0.9-0.2-1.7-0.5-2.5s-0.8-1.5-1.5-2.1s-1.5-1.1-2.5-1.4c-1-0.4-2.3-0.5-3.7-0.5s-2.7,0.2-4.1,0.7c-1.4,0.5-2.6,1.2-3.6,2.2
		L-120.3,283.7z M-146,287.1c0-0.7,0.1-1.3,0.4-2c0.3-0.7,0.7-1.3,1.2-1.8s1.2-1,1.9-1.3c0.8-0.3,1.6-0.5,2.5-0.5s1.8,0.1,2.5,0.4
		c0.7,0.3,1.3,0.7,1.8,1.2s0.8,1.1,1.1,1.8c0.2,0.7,0.4,1.4,0.4,2.3H-146V287.1z M-130.3,290.1v-1.3c0-1.3-0.2-2.5-0.5-3.7
		s-0.9-2.3-1.7-3.3s-1.8-1.8-2.9-2.4c-1.2-0.6-2.7-0.9-4.4-0.9c-1.5,0-2.8,0.3-4,0.8s-2.3,1.2-3.2,2.2c-0.9,0.9-1.6,2-2.1,3.3
		c-0.5,1.3-0.8,2.6-0.8,4.1s0.2,2.8,0.7,4.1c0.5,1.3,1.1,2.3,2,3.3c0.9,0.9,1.9,1.6,3.2,2.2c1.3,0.5,2.6,0.8,4.2,0.8
		c3.7,0,6.6-1.3,8.7-4l-2.8-2.1c-0.7,0.9-1.5,1.6-2.3,2.1c-0.9,0.5-1.9,0.8-3,0.8c-0.9,0-1.7-0.1-2.5-0.4c-0.8-0.3-1.5-0.7-2.1-1.2
		s-1.1-1.1-1.5-1.8c-0.4-0.7-0.6-1.5-0.6-2.3h15.6V290.1z M-166.6,298.5h3.7v-9.8c0-2.1,0.5-3.7,1.4-4.7c1-1,2.3-1.5,4.2-1.5
		c0.3,0,0.6,0,0.9,0.1c0.3,0.1,0.6,0.1,0.9,0.2l0.2-4c-0.5-0.2-1-0.2-1.6-0.2s-1.2,0.1-1.8,0.3c-0.6,0.2-1.2,0.4-1.7,0.7
		s-1,0.7-1.4,1.1s-0.7,0.9-1,1.4h-0.1v-3h-3.7L-166.6,298.5L-166.6,298.5z M-174.7,279h-5.3v-5.5h-3.7v5.5h-4.3v3.2h4.3v10.2
		c0,0.8,0,1.6,0.1,2.4c0.1,0.8,0.3,1.5,0.7,2.1c0.4,0.6,0.9,1.1,1.7,1.5c0.8,0.4,1.9,0.6,3.3,0.6c0.4,0,0.9,0,1.6-0.1
		c0.7-0.1,1.3-0.3,1.7-0.5V295c-0.4,0.2-0.8,0.4-1.3,0.5s-0.9,0.1-1.4,0.1c-0.7,0-1.3-0.1-1.6-0.4c-0.4-0.3-0.6-0.6-0.8-1
		c-0.2-0.4-0.3-0.9-0.3-1.4s0-1.1,0-1.6v-8.9h5.3V279z M-193.4,281.7c-0.7-1.2-1.7-2-2.9-2.5s-2.5-0.7-3.8-0.7
		c-0.9,0-1.8,0.1-2.7,0.4c-0.9,0.2-1.7,0.6-2.4,1.1s-1.3,1.1-1.7,1.9c-0.4,0.8-0.6,1.6-0.6,2.7c0,0.9,0.2,1.7,0.5,2.3
		c0.3,0.6,0.8,1.2,1.3,1.6s1.2,0.7,1.9,1c0.7,0.2,1.5,0.5,2.3,0.7c0.4,0.1,0.9,0.2,1.4,0.3s1,0.3,1.5,0.5c0.5,0.2,0.9,0.5,1.2,0.8
		c0.3,0.4,0.5,0.8,0.5,1.4c0,0.4-0.1,0.8-0.4,1.1c-0.2,0.3-0.5,0.6-0.9,0.8c-0.4,0.2-0.8,0.4-1.3,0.5s-1,0.1-1.4,0.1
		c-1.1,0-2-0.2-2.7-0.7s-1.4-1-2-1.6l-2.8,2.3c1,1.3,2.1,2.2,3.3,2.7s2.6,0.7,4.3,0.7c1,0,1.9-0.1,2.9-0.3c0.9-0.2,1.8-0.6,2.5-1.1
		s1.3-1.1,1.8-1.9c0.5-0.8,0.7-1.7,0.7-2.8c0-0.9-0.1-1.7-0.4-2.3c-0.3-0.6-0.7-1.2-1.2-1.6s-1.1-0.8-1.8-1.1
		c-0.7-0.3-1.5-0.5-2.2-0.7c-0.4-0.1-0.9-0.2-1.5-0.3s-1.1-0.3-1.6-0.5s-0.9-0.5-1.3-0.9c-0.4-0.4-0.6-0.8-0.6-1.4
		c0-0.7,0.3-1.3,1-1.6c0.6-0.4,1.4-0.6,2.3-0.6c0.9,0,1.7,0.2,2.4,0.6c0.6,0.4,1.2,0.8,1.6,1.4L-193.4,281.7z M-231.4,298.5h3.7
		v-10.2l9.1,10.1h5.3l-9.9-10.6l9.1-8.9h-5.2l-8.4,8.4v-20h-3.7V298.5z M-239.7,281.7c-0.7-1.2-1.7-2-2.9-2.5
		c-1.2-0.5-2.5-0.7-3.8-0.7c-0.9,0-1.8,0.1-2.7,0.4c-0.9,0.2-1.7,0.6-2.4,1.1c-0.7,0.5-1.3,1.1-1.7,1.9c-0.4,0.8-0.6,1.6-0.6,2.7
		c0,0.9,0.2,1.7,0.5,2.3c0.3,0.6,0.8,1.2,1.3,1.6s1.2,0.7,1.9,1c0.7,0.2,1.5,0.5,2.3,0.7c0.4,0.1,0.9,0.2,1.4,0.3s1,0.3,1.5,0.5
		c0.5,0.2,0.9,0.5,1.2,0.8c0.3,0.4,0.5,0.8,0.5,1.4c0,0.4-0.1,0.8-0.4,1.1c-0.2,0.3-0.5,0.6-0.9,0.8c-0.4,0.2-0.8,0.4-1.3,0.5
		s-1,0.1-1.4,0.1c-1.1,0-2-0.2-2.7-0.7s-1.4-1-2-1.6l-2.8,2.3c1,1.3,2.1,2.2,3.3,2.7c1.2,0.5,2.6,0.7,4.3,0.7c1,0,1.9-0.1,2.9-0.3
		c0.9-0.2,1.8-0.6,2.5-1.1c0.7-0.5,1.3-1.1,1.8-1.9c0.5-0.8,0.7-1.7,0.7-2.8c0-0.9-0.1-1.7-0.4-2.3c-0.3-0.6-0.7-1.2-1.2-1.6
		s-1.1-0.8-1.8-1.1c-0.7-0.3-1.4-0.5-2.2-0.7c-0.4-0.1-0.9-0.2-1.5-0.3s-1.1-0.3-1.6-0.5s-0.9-0.5-1.3-0.9c-0.4-0.4-0.6-0.8-0.6-1.4
		c0-0.7,0.3-1.3,1-1.6c0.6-0.4,1.4-0.6,2.3-0.6s1.7,0.2,2.4,0.6c0.6,0.4,1.2,0.8,1.6,1.4L-239.7,281.7z M-265.1,289.1v1.2
		c0,0.7-0.1,1.3-0.3,2c-0.2,0.7-0.5,1.3-0.9,1.8c-0.4,0.5-1,1-1.7,1.3c-0.7,0.3-1.6,0.5-2.6,0.5c-1.3,0-2.3-0.2-3.1-0.7
		c-0.8-0.5-1.1-1.3-1.1-2.4c0-0.8,0.2-1.4,0.7-1.9s1.1-0.9,1.9-1.2c0.8-0.3,1.6-0.5,2.5-0.6c0.8,0,1.7,0,2.6,0H-265.1z
		 M-275.4,283.7c0.3-0.2,0.7-0.5,1-0.8c0.4-0.3,0.8-0.5,1.2-0.7c0.4-0.2,0.9-0.4,1.5-0.5c0.5-0.1,1.2-0.2,1.9-0.2
		c0.8,0,1.5,0.1,2.1,0.4c0.6,0.2,1.1,0.5,1.4,0.9c0.4,0.4,0.7,0.8,0.9,1.3c0.2,0.5,0.3,1,0.3,1.5v0.8h-2.7c-1.5,0-2.9,0.1-4.2,0.3
		c-1.3,0.2-2.4,0.6-3.4,1.2c-1,0.5-1.7,1.2-2.3,2.1c-0.6,0.9-0.8,1.9-0.8,3.2c0,1,0.2,1.8,0.5,2.5c0.4,0.7,0.8,1.3,1.5,1.8
		c0.6,0.5,1.3,0.9,2.2,1.1c0.8,0.2,1.7,0.4,2.6,0.4c1.5,0,2.8-0.3,3.9-0.8c1.1-0.5,2.1-1.4,2.9-2.7h0.1c0,1,0,2,0.1,3h3.3
		c-0.1-0.5-0.1-1.1-0.1-1.6c0-0.6,0-1.2,0-1.9v-10c0-0.9-0.2-1.7-0.5-2.5s-0.8-1.5-1.5-2.1s-1.5-1.1-2.5-1.4c-1-0.4-2.3-0.5-3.7-0.5
		c-1.4,0-2.7,0.2-4.1,0.7c-1.4,0.5-2.6,1.2-3.6,2.2L-275.4,283.7z M-285.7,279h-5.3v-5.5h-3.7v5.5h-4.3v3.2h4.3v10.2
		c0,0.8,0,1.6,0.1,2.4c0.1,0.8,0.3,1.5,0.7,2.1c0.4,0.6,0.9,1.1,1.7,1.5c0.8,0.4,1.9,0.6,3.3,0.6c0.4,0,0.9,0,1.6-0.1
		c0.7-0.1,1.3-0.3,1.7-0.5V295c-0.4,0.2-0.8,0.4-1.3,0.5s-0.9,0.1-1.4,0.1c-0.7,0-1.3-0.1-1.6-0.4c-0.4-0.3-0.6-0.6-0.8-1
		c-0.2-0.4-0.3-0.9-0.3-1.4s0-1.1,0-1.6v-8.9h5.3V279z"/>
	<path fill="#52247F" d="M-316.6,266.7h-20.8v-4.6c0,0-4.6,0-4.6,4.6v4.6v13.8c0,0,0,4.6,4.6,4.6h11.3c0,0,2.5,0,2.5-2.3
		c0-2.3-2.5-2.3-2.5-2.3h-9c-2.3,0-2.3-2.3-2.3-2.3v-9.3c0,0,0.2-2.2,2.4-2.2h18.3c2.4,0,2.4-2.3,2.4-2.3S-314.3,266.7-316.6,266.7"
		/>
	<path fill="#009DDC" d="M-314.3,299v-4.6v-0.3v-1.7v-11.9c0,0,0-4.6-4.6-4.6h-11.3c0,0-2.5,0-2.5,2.3c0,2.3,2.5,2.3,2.5,2.3h9
		c2.3,0,2.3,2.3,2.3,2.3v9.3c0,0-0.2,2.2-2.4,2.2h-18.3c-2.4,0.1-2.4,2.4-2.4,2.4s0,2.3,2.3,2.3h20.6h0.1
		C-319,299-314.3,299-314.3,299z"/>
</g>
</svg>
