<?xml version="1.0" encoding="utf-8"?>
<!-- Generator: Adobe Illustrator 21.0.2, SVG Export Plug-In . SVG Version: 6.00 Build 0)  -->
<svg version="1.1" id="Layer_1" xmlns="http://www.w3.org/2000/svg" xmlns:xlink="http://www.w3.org/1999/xlink" x="0px" y="0px"
	 width="295.2px" height="295.2px" viewBox="0 0 295.2 295.2" style="enable-background:new 0 0 295.2 295.2;" xml:space="preserve"
	>
<style type="text/css">
	.st0{fill:#51287D;}
	.st1{fill:#3F92DF;}
</style>
<g>
	<g>
		<path class="st0" d="M180.1,153.2c6.1,11.7,9.6,24.2,10.2,37.3h-38.1c-0.5-11.8-2.6-22.7-5.9-32.4c8.8-1.6,16.1-3.4,21.7-5.1
			l-2.8-9.1c-5.6,1.7-13.1,3.6-22.3,5.1c-8.3-19.7-20.4-34.3-29.2-43.1c6,1,12,2.5,17.8,4.6l3.3-8.9c-11.4-4.3-23.1-6.4-35-6.4
			c-55.1,0-100,44.9-100,100s44.9,100,100,100s100-44.9,100-100c0-16.3-3.9-32-11.5-46.5L180.1,153.2z M95.2,110.5v41.8
			c-10.6-0.2-20-0.9-28.3-1.9C75.4,131.6,87.5,118,95.2,110.5z M95.2,161.8v28.6H57.4c0.5-11.3,2.7-21.6,6-30.9
			C72.5,160.8,83.2,161.6,95.2,161.8z M47.7,190.5h-38c0.8-14.9,5.2-28.9,12.3-41c5.7,2.3,16.2,5.9,31.5,8.6
			C50.4,167.8,48.2,178.7,47.7,190.5z M47.7,200c0.5,11.8,2.6,22.6,5.9,32.4c-15.3,2.7-25.8,6.3-31.5,8.6
			c-7.2-12.2-11.5-26.1-12.3-41H47.7z M57.4,200h37.9v28.6c-12.1,0.2-22.7,1-31.9,2.2C60.1,221.6,57.9,211.3,57.4,200z M95.2,238.2
			V280c-7.8-7.5-19.8-21.1-28.3-40C75.2,239,84.6,238.3,95.2,238.2z M104.8,280v-41.8c10.6,0.2,20,0.9,28.3,1.9
			C124.6,258.9,112.5,272.5,104.8,280z M104.8,228.6V200h37.9c-0.5,11.3-2.7,21.6-6,30.9C127.5,229.7,116.8,228.8,104.8,228.6z
			 M152.3,200h38c-0.8,14.9-5.2,28.9-12.3,41c-5.7-2.3-16.2-5.9-31.5-8.6C149.6,222.6,151.8,211.8,152.3,200z M142.6,190.5h-37.9
			v-28.7c12.1-0.2,22.7-1,31.9-2.3C139.9,168.8,142.1,179.2,142.6,190.5z M104.8,152.3v-41.8c7.8,7.5,19.8,21.1,28.3,40
			C124.8,151.4,115.4,152.1,104.8,152.3z M86.2,105.9c-8.8,8.8-20.9,23.3-29.2,43c-14-2.4-23.8-5.5-29.5-7.6
			C41.4,122.7,62.2,109.6,86.2,105.9z M27.5,249.1c5.7-2.2,15.5-5.3,29.5-7.7c8.3,19.7,20.4,34.3,29.2,43.1
			C62.2,280.8,41.4,267.8,27.5,249.1z M113.8,284.5c8.8-8.8,20.9-23.3,29.2-43c14,2.4,23.8,5.5,29.5,7.6
			C158.6,267.8,137.8,280.8,113.8,284.5z"/>
		<path class="st1" d="M266.7,14.3H281c7.9,0,14.3,6.4,14.3,14.3v95.2c0,7.9-6.4,14.3-14.3,14.3h-76.2l-42.9,38.1v-38.1h-19
			c-7.9,0-14.3-6.4-14.3-14.3V28.6c0-7.9,6.4-14.3,14.3-14.3h14.3L266.7,14.3L266.7,14.3z"/>
		<path class="st0" d="M166.7,38.1c7.9,0,14.3-6.4,14.3-14.3v-9.5C181,6.4,174.5,0,166.7,0c-7.9,0-14.3,6.4-14.3,14.3v9.5
			C152.4,31.7,158.8,38.1,166.7,38.1z M161.9,14.3c0-2.6,2.1-4.8,4.8-4.8s4.8,2.1,4.8,4.8v9.5c0,2.6-2.1,4.8-4.8,4.8
			s-4.8-2.1-4.8-4.8V14.3z"/>
		<path class="st0" d="M257.1,0c-7.9,0-14.3,6.4-14.3,14.3v9.5c0,7.9,6.4,14.3,14.3,14.3c7.9,0,14.3-6.4,14.3-14.3v-9.5
			C271.4,6.4,265,0,257.1,0z M261.9,23.8c0,2.6-2.1,4.8-4.8,4.8s-4.8-2.1-4.8-4.8v-9.5c0-2.6,2.1-4.8,4.8-4.8s4.8,2.1,4.8,4.8V23.8z
			"/>
		<rect x="152.4" y="52.4" class="st0" width="19" height="9.5"/>
		<rect x="185.7" y="52.4" class="st0" width="19" height="9.5"/>
		<rect x="219" y="52.4" class="st0" width="19" height="9.5"/>
		<rect x="252.4" y="52.4" class="st0" width="19" height="9.5"/>
		<rect x="152.4" y="76.2" class="st0" width="19" height="9.5"/>
		<rect x="185.7" y="76.2" class="st0" width="19" height="9.5"/>
		<rect x="219" y="76.2" class="st0" width="19" height="9.5"/>
		<rect x="252.4" y="76.2" class="st0" width="19" height="9.5"/>
		<rect x="152.4" y="100" class="st0" width="19" height="9.5"/>
		<rect x="185.7" y="100" class="st0" width="19" height="9.5"/>
		<rect x="219" y="100" class="st0" width="19" height="9.5"/>
		<rect x="252.4" y="100" class="st0" width="19" height="9.5"/>
	</g>
</g>
</svg>
